<svg id="computer_icon_1" enable-background="new 0 0 512 512" height="512" viewBox="0 0 512 512" width="512" xmlns="http://www.w3.org/2000/svg">
    <g>
        <g><path class="computer_icon" fill="#ffffff" d="m378.863 475.25h-245.726c-8.271 0-15-6.729-15-15v-7.5c0-12.407 10.093-22.5 22.5-22.5h22.843c10.078 0 21.083-1.135 24.12-14.688l5.335-23.812h-170.435c-12.407 0-22.5-10.093-22.5-22.5v-15c0-4.142 3.358-7.5 7.5-7.5h489.5v-264h-482v241.5c0 4.142-3.358 7.5-7.5 7.5s-7.5-3.358-7.5-7.5v-265c0-12.407 10.093-22.5 22.5-22.5h337.78c4.142 0 7.5 3.358 7.5 7.5s-3.358 7.5-7.5 7.5h-337.78c-4.136 0-7.5 3.364-7.5 7.5v8.5h482v-8.5c0-4.136-3.364-7.5-7.5-7.5h-99.22c-4.142 0-7.5-3.358-7.5-7.5s3.358-7.5 7.5-7.5h99.22c12.407 0 22.5 10.093 22.5 22.5v310c0 12.407-10.093 22.5-22.5 22.5h-170.435l5.335 23.811c3.037 13.554 14.042 14.689 24.12 14.689 4.142 0 7.5 3.358 7.5 7.5s-3.358 7.5-7.5 7.5h-207.883c-4.136 0-7.5 3.364-7.5 7.5v7.5h245.727v-7.5c0-2.851-1.584-5.42-4.134-6.706-3.699-1.864-5.186-6.374-3.322-10.073s6.374-5.185 10.073-3.322c7.638 3.85 12.383 11.552 12.383 20.101v7.5c-.001 8.271-6.73 15-15.001 15zm-181.203-45h116.68c-2.079-3.272-3.607-7.078-4.577-11.409l-6.07-27.091h-95.386l-6.07 27.091c-.97 4.332-2.499 8.137-4.577 11.409zm-182.66-68.5v7.5c0 4.136 3.364 7.5 7.5 7.5h467c4.136 0 7.5-3.364 7.5-7.5v-7.5zm275.236-104.293c-.786 0-1.586-.125-2.373-.387-3.93-1.31-6.053-5.558-4.744-9.487l23.47-70.41c1.31-3.929 5.559-6.053 9.487-4.744 3.93 1.31 6.053 5.558 4.744 9.487l-23.47 70.41c-1.048 3.144-3.974 5.131-7.114 5.131zm68.469-.002c-1.919 0-3.839-.732-5.303-2.197-2.929-2.929-2.929-7.678 0-10.606l29.901-29.902-29.901-29.901c-2.929-2.929-2.929-7.678 0-10.606 2.929-2.929 7.678-2.929 10.606 0l35.205 35.205c2.929 2.929 2.929 7.678 0 10.606l-35.205 35.205c-1.464 1.464-3.383 2.196-5.303 2.196zm-205.41 0c-1.919 0-3.839-.732-5.303-2.197l-35.205-35.205c-2.929-2.929-2.929-7.678 0-10.606l35.205-35.205c2.929-2.929 7.678-2.929 10.606 0 2.929 2.929 2.929 7.678 0 10.606l-29.901 29.901 29.901 29.902c2.929 2.929 2.929 7.678 0 10.606-1.464 1.466-3.384 2.198-5.303 2.198zm91.94 0h-46.94c-4.142 0-7.5-3.358-7.5-7.5s3.358-7.5 7.5-7.5h46.94c4.142 0 7.5 3.358 7.5 7.5s-3.358 7.5-7.5 7.5z"/></g>
    </g>
</svg>
